# Blender 3.5.0
# www.blender.org
mtllib TUBE.mtl
o Cylinder.002
v -11.698197 -0.030691 4.348752
v 8.300073 0.232324 4.348752
v -11.704492 0.447899 4.348752
v 8.293778 0.710914 4.348752
v 8.299443 0.280183 4.154564
v 8.294408 0.663055 4.154564
v -11.703862 0.400040 4.154564
v -11.698827 0.017168 4.154564
vn -0.0000 -0.0000 1.0000
vn -0.0000 -0.0000 -1.0000
vn 0.9999 0.0132 -0.0000
vn -0.9999 -0.0132 -0.0000
vn 0.0128 -0.9709 -0.2393
vn -0.0128 0.9709 -0.2393
vt 0.538462 0.500000
vt 0.807436 0.016974
vt 0.538462 1.000000
vt 0.307436 0.016974
vt 0.461538 0.500000
vt 0.692564 0.016974
vt 0.461538 1.000000
vt 0.192564 0.016974
vt 0.295949 0.063579
vt 0.538462 0.552051
vt 0.204051 0.063579
vt 0.461538 0.552051
vt 0.461538 0.947949
vt 0.704051 0.063579
vt 0.538462 0.947949
vt 0.795949 0.063579
s 0
f 1/1/1 2/3/1 4/7/1 3/5/1
f 6/11/3 4/8/3 2/4/3 5/9/3
f 1/2/4 3/6/4 7/14/4 8/16/4
f 1/2/5 8/16/5 5/10/5 2/4/5
f 3/6/6 4/8/6 6/12/6 7/14/6
f 6/12/2 5/10/2 8/15/2 7/13/2
o Cylinder.001
v -11.692613 -0.455320 4.125560
v 8.305657 -0.192304 4.125560
v -11.698183 -0.031805 4.348477
v 8.300087 0.231211 4.348477
v 8.303911 -0.059520 3.976010
v 8.299455 0.279292 4.154344
v -11.698815 0.016277 4.154344
v -11.694359 -0.322535 3.976010
vn 0.0061 -0.4657 0.8849
vn -0.0061 0.4657 -0.8849
vn 0.9999 0.0132 -0.0000
vn -0.9999 -0.0132 -0.0000
vn 0.0098 -0.7477 -0.6640
vn -0.0128 0.9706 0.2404
vt 0.538462 0.500000
vt 0.807436 0.016974
vt 0.538462 1.000000
vt 0.307436 0.016974
vt 0.461538 0.500000
vt 0.692564 0.016974
vt 0.461538 1.000000
vt 0.192564 0.016974
vt 0.295949 0.063579
vt 0.538462 0.552051
vt 0.204051 0.063579
vt 0.461538 0.552051
vt 0.461538 0.947949
vt 0.704051 0.063579
vt 0.538462 0.947949
vt 0.795949 0.063579
s 0
f 9/17/7 10/19/7 12/23/7 11/21/7
f 14/27/9 12/24/9 10/20/9 13/25/9
f 9/18/10 11/22/10 15/30/10 16/32/10
f 9/18/11 16/32/11 13/26/11 10/20/11
f 11/22/12 12/24/12 14/28/12 15/30/12
f 14/28/8 13/26/8 16/31/8 15/29/8
o Cylinder.003
v -11.689096 -0.722708 3.741825
v 8.309174 -0.459694 3.741827
v -11.692724 -0.446880 4.132969
v 8.305546 -0.183865 4.132971
v 8.306725 -0.273431 3.669024
v 8.303823 -0.052769 3.981939
v -11.694448 -0.315783 3.981937
v -11.691545 -0.536445 3.669022
vn 0.0107 -0.8171 0.5763
vn -0.0107 0.8171 -0.5763
vn 0.9999 0.0132 -0.0000
vn -0.9999 -0.0132 -0.0000
vn 0.0048 -0.3640 -0.9314
vn -0.0099 0.7551 0.6555
vt 0.538462 0.500000
vt 0.807436 0.016974
vt 0.538462 1.000000
vt 0.307436 0.016974
vt 0.461538 0.500000
vt 0.692564 0.016974
vt 0.461538 1.000000
vt 0.192564 0.016974
vt 0.295949 0.063579
vt 0.538462 0.552051
vt 0.204051 0.063579
vt 0.461538 0.552051
vt 0.461538 0.947949
vt 0.704051 0.063579
vt 0.538462 0.947949
vt 0.795949 0.063579
s 0
f 17/33/13 18/35/13 20/39/13 19/37/13
f 22/43/15 20/40/15 18/36/15 21/41/15
f 17/34/16 19/38/16 23/46/16 24/48/16
f 17/34/17 24/48/17 21/42/17 18/36/17
f 19/38/18 20/40/18 22/44/18 23/46/18
f 22/44/14 21/42/14 24/47/14 23/45/14
o Cylinder.004
v -11.688265 -0.785903 3.273952
v 8.310005 -0.522887 3.273952
v -11.689128 -0.720249 3.748058
v 8.309142 -0.457234 3.748058
v 8.307389 -0.323986 3.294723
v 8.306699 -0.271463 3.674008
v -11.691571 -0.534479 3.674009
v -11.690881 -0.587001 3.294724
vn 0.0130 -0.9905 0.1372
vn -0.0130 0.9905 -0.1372
vn 0.9999 0.0132 -0.0000
vn -0.9999 -0.0132 -0.0000
vn -0.0014 0.1038 -0.9946
vn -0.0049 0.3702 0.9289
vt 0.538462 0.500000
vt 0.807436 0.016974
vt 0.538462 1.000000
vt 0.307436 0.016974
vt 0.461538 0.500000
vt 0.692564 0.016974
vt 0.461538 1.000000
vt 0.192564 0.016974
vt 0.295949 0.063579
vt 0.538462 0.552051
vt 0.204051 0.063579
vt 0.461538 0.552051
vt 0.461538 0.947949
vt 0.704051 0.063579
vt 0.538462 0.947949
vt 0.795949 0.063579
s 0
f 25/49/19 26/51/19 28/55/19 27/53/19
f 30/59/21 28/56/21 26/52/21 29/57/21
f 25/50/22 27/54/22 31/62/22 32/64/22
f 25/50/23 32/64/23 29/58/23 26/52/23
f 27/54/24 28/56/24 30/60/24 31/62/24
f 30/60/20 29/58/20 32/63/20 31/61/20
o Cylinder.005
v -11.690264 -0.633898 2.839230
v 8.308006 -0.370882 2.839231
v -11.688242 -0.787664 3.292485
v 8.310028 -0.524648 3.292485
v 8.305790 -0.202382 2.946947
v 8.307407 -0.325395 3.309550
v -11.690863 -0.588410 3.309550
v -11.692480 -0.465398 2.946946
vn 0.0125 -0.9469 -0.3213
vn -0.0125 0.9469 0.3213
vn 0.9999 0.0132 -0.0000
vn -0.9999 -0.0132 -0.0000
vn -0.0071 0.5385 -0.8426
vn 0.0011 -0.0853 0.9964
vt 0.538462 0.500000
vt 0.807436 0.016974
vt 0.538462 1.000000
vt 0.307436 0.016974
vt 0.461538 0.500000
vt 0.692564 0.016974
vt 0.461538 1.000000
vt 0.192564 0.016974
vt 0.295949 0.063579
vt 0.538462 0.552051
vt 0.204051 0.063579
vt 0.461538 0.552051
vt 0.461538 0.947949
vt 0.704051 0.063579
vt 0.538462 0.947949
vt 0.795949 0.063579
s 0
f 33/65/25 34/67/25 36/71/25 35/69/25
f 38/75/27 36/72/27 34/68/27 37/73/27
f 33/66/28 35/70/28 39/78/28 40/80/28
f 33/66/29 40/80/29 37/74/29 34/68/29
f 35/70/30 36/72/30 38/76/30 39/78/30
f 38/76/26 37/74/26 40/79/26 39/77/26
o Cylinder.006
v -11.694536 -0.309089 2.522271
v 8.303734 -0.046074 2.522270
v -11.690087 -0.647345 2.860873
v 8.308183 -0.384330 2.860872
v 8.302372 0.057465 2.693378
v 8.305931 -0.213140 2.964259
v -11.692339 -0.476155 2.964260
v -11.695898 -0.205550 2.693379
vn 0.0093 -0.7074 -0.7068
vn -0.0093 0.7074 0.7068
vn 0.9999 0.0132 -0.0000
vn -0.9999 -0.0132 -0.0000
vn -0.0113 0.8555 -0.5177
vn 0.0068 -0.5169 0.8560
vt 0.538462 0.500000
vt 0.807436 0.016974
vt 0.538462 1.000000
vt 0.307436 0.016974
vt 0.461538 0.500000
vt 0.692564 0.016974
vt 0.461538 1.000000
vt 0.192564 0.016974
vt 0.295949 0.063579
vt 0.538462 0.552051
vt 0.204051 0.063579
vt 0.461538 0.552051
vt 0.461538 0.947949
vt 0.704051 0.063579
vt 0.538462 0.947949
vt 0.795949 0.063579
s 0
f 41/81/31 42/83/31 44/87/31 43/85/31
f 46/91/33 44/88/33 42/84/33 45/89/33
f 41/82/34 43/86/34 47/94/34 48/96/34
f 41/82/35 48/96/35 45/90/35 42/84/35
f 43/86/36 44/88/36 46/92/36 47/94/36
f 46/92/32 45/90/32 48/95/32 47/93/32
o Cylinder.007
v -11.700362 0.133935 2.380602
v 8.297908 0.396950 2.380602
v -11.694381 -0.320898 2.529530
v 8.303889 -0.057883 2.529530
v 8.297711 0.411884 2.580044
v 8.302497 0.048017 2.699186
v -11.695773 -0.214998 2.699186
v -11.700559 0.148868 2.580044
vn 0.0041 -0.3111 -0.9504
vn -0.0041 0.3111 0.9504
vn 0.9999 0.0132 -0.0000
vn -0.9999 -0.0132 -0.0000
vn -0.0131 0.9971 -0.0747
vn 0.0112 -0.8482 0.5295
vt 0.538462 0.500000
vt 0.807436 0.016974
vt 0.538462 1.000000
vt 0.307436 0.016974
vt 0.461538 0.500000
vt 0.692564 0.016974
vt 0.461538 1.000000
vt 0.192564 0.016974
vt 0.295949 0.063579
vt 0.538462 0.552051
vt 0.204051 0.063579
vt 0.461538 0.552051
vt 0.461538 0.947949
vt 0.704051 0.063579
vt 0.538462 0.947949
vt 0.795949 0.063579
s 0
f 49/97/37 50/99/37 52/103/37 51/101/37
f 54/107/39 52/104/39 50/100/39 53/105/39
f 49/98/40 51/102/40 55/110/40 56/112/40
f 49/98/41 56/112/41 53/106/41 50/100/41
f 51/102/42 52/104/42 54/108/42 55/110/42
f 54/108/38 53/106/38 56/111/38 55/109/38
o Cylinder.008
v -11.706317 0.586635 2.452037
v 8.291953 0.849650 2.452024
v -11.700089 0.113140 2.382385
v 8.298181 0.376155 2.382371
v 8.292948 0.774044 2.637180
v 8.297930 0.395248 2.581458
v -11.700340 0.132233 2.581471
v -11.705322 0.511029 2.637193
vn -0.0019 0.1455 -0.9894
vn 0.0019 -0.1455 0.9894
vn 0.9999 0.0132 -0.0000
vn -0.9999 -0.0132 -0.0000
vn -0.0122 0.9257 0.3781
vn 0.0131 -0.9953 0.0955
vt 0.538462 0.500000
vt 0.807436 0.016974
vt 0.538462 1.000000
vt 0.307436 0.016974
vt 0.461538 0.500000
vt 0.692564 0.016974
vt 0.461538 1.000000
vt 0.192564 0.016974
vt 0.295949 0.063579
vt 0.538462 0.552051
vt 0.204051 0.063579
vt 0.461538 0.552051
vt 0.461538 0.947949
vt 0.704051 0.063579
vt 0.538462 0.947949
vt 0.795949 0.063579
s 0
f 57/113/43 58/115/43 60/119/43 59/117/43
f 62/123/45 60/120/45 58/116/45 61/121/45
f 57/114/46 59/118/46 63/126/46 64/128/46
f 57/114/47 64/128/47 61/122/47 58/116/47
f 59/118/48 60/120/48 62/124/48 63/126/48
f 62/124/44 61/122/44 64/127/44 63/125/44
o Cylinder.009
v -11.711291 0.964893 2.723650
v 8.286979 1.227908 2.723647
v -11.706154 0.574286 2.447084
v 8.292116 0.837302 2.447082
v 8.288968 1.076650 2.854479
v 8.293077 0.764165 2.633227
v -11.705193 0.501150 2.633230
v -11.709302 0.813635 2.854482
vn -0.0076 0.5778 -0.8162
vn 0.0076 -0.5778 0.8162
vn 0.9999 0.0132 -0.0000
vn -0.9999 -0.0132 -0.0000
vn -0.0086 0.6541 0.7564
vn 0.0122 -0.9306 -0.3657
vt 0.538462 0.500000
vt 0.807436 0.016974
vt 0.538462 1.000000
vt 0.307436 0.016974
vt 0.461538 0.500000
vt 0.692564 0.016974
vt 0.461538 1.000000
vt 0.192564 0.016974
vt 0.295949 0.063579
vt 0.538462 0.552051
vt 0.204051 0.063579
vt 0.461538 0.552051
vt 0.461538 0.947949
vt 0.704051 0.063579
vt 0.538462 0.947949
vt 0.795949 0.063579
s 0
f 65/129/49 66/131/49 68/135/49 67/133/49
f 70/139/51 68/136/51 66/132/51 69/137/51
f 65/130/52 67/134/52 71/142/52 72/144/52
f 65/130/53 72/144/53 69/138/53 66/132/53
f 67/134/54 68/136/54 70/140/54 71/142/54
f 70/140/50 69/138/50 72/143/50 71/141/50
o Cylinder.010
v -11.714078 1.176765 3.127811
v 8.284192 1.439781 3.127807
v -11.711091 0.949697 2.706481
v 8.287179 1.212713 2.706477
v 8.286739 1.246149 3.177808
v 8.289128 1.064494 2.840743
v -11.709142 0.801478 2.840747
v -11.711531 0.983133 3.177811
vn -0.0116 0.8802 -0.4745
vn 0.0116 -0.8802 0.4745
vn 0.9999 0.0132 -0.0000
vn -0.9999 -0.0132 -0.0000
vn -0.0033 0.2500 0.9682
vn 0.0088 -0.6713 -0.7412
vt 0.538462 0.500000
vt 0.807436 0.016974
vt 0.538462 1.000000
vt 0.307436 0.016974
vt 0.461538 0.500000
vt 0.692564 0.016974
vt 0.461538 1.000000
vt 0.192564 0.016974
vt 0.295949 0.063579
vt 0.538462 0.552051
vt 0.204051 0.063579
vt 0.461538 0.552051
vt 0.461538 0.947949
vt 0.704051 0.063579
vt 0.538462 0.947949
vt 0.795949 0.063579
s 0
f 73/145/55 74/147/55 76/151/55 75/149/55
f 78/155/57 76/152/57 74/148/57 77/153/57
f 73/146/58 75/150/58 79/158/58 80/160/58
f 73/146/59 80/160/59 77/154/59 74/148/59
f 75/150/60 76/152/60 78/156/60 79/158/60
f 78/156/56 77/154/56 80/159/56 79/157/56
o Cylinder.011
v -11.714216 1.187284 3.582803
v 8.284054 1.450298 3.582800
v -11.713994 1.170438 3.104468
v 8.284276 1.433452 3.104465
v 8.286629 1.254562 3.541801
v 8.286805 1.241085 3.159133
v -11.711465 0.978071 3.159137
v -11.711641 0.991548 3.541805
vn -0.0131 0.9993 -0.0352
vn 0.0131 -0.9993 0.0352
vn 0.9999 0.0132 -0.0000
vn -0.9999 -0.0132 -0.0000
vn 0.0027 -0.2050 0.9788
vn 0.0036 -0.2733 -0.9619
vt 0.538462 0.500000
vt 0.807436 0.016974
vt 0.538462 1.000000
vt 0.307436 0.016974
vt 0.461538 0.500000
vt 0.692564 0.016974
vt 0.461538 1.000000
vt 0.192564 0.016974
vt 0.295949 0.063579
vt 0.538462 0.552051
vt 0.204051 0.063579
vt 0.461538 0.552051
vt 0.461538 0.947949
vt 0.704051 0.063579
vt 0.538462 0.947949
vt 0.795949 0.063579
s 0
f 81/161/61 82/163/61 84/167/61 83/165/61
f 86/171/63 84/168/63 82/164/63 85/169/63
f 81/162/64 83/166/64 87/174/64 88/176/64
f 81/162/65 88/176/65 85/170/65 82/164/65
f 83/166/66 84/168/66 86/172/66 87/174/66
f 86/172/62 85/170/62 88/175/62 87/173/62
o Cylinder.012
v -11.711719 0.997371 3.992417
v 8.286551 1.260387 3.992411
v -11.714286 1.192618 3.555428
v 8.283984 1.455635 3.555422
v 8.288627 1.102634 3.869490
v 8.286572 1.258832 3.519899
v -11.711698 0.995815 3.519905
v -11.709643 0.839617 3.869496
vn -0.0120 0.9129 0.4080
vn 0.0120 -0.9129 -0.4080
vn 0.9999 0.0132 -0.0000
vn -0.9999 -0.0132 -0.0000
vn 0.0081 -0.6146 0.7888
vn -0.0023 0.1776 -0.9841
vt 0.538462 0.500000
vt 0.807436 0.016974
vt 0.538462 1.000000
vt 0.307436 0.016974
vt 0.461538 0.500000
vt 0.692564 0.016974
vt 0.461538 1.000000
vt 0.192564 0.016974
vt 0.295949 0.063579
vt 0.538462 0.552051
vt 0.204051 0.063579
vt 0.461538 0.552051
vt 0.461538 0.947949
vt 0.704051 0.063579
vt 0.538462 0.947949
vt 0.795949 0.063579
s 0
f 89/177/67 90/179/67 92/183/67 91/181/67
f 94/187/69 92/184/69 90/180/69 93/185/69
f 89/178/70 91/182/70 95/190/70 96/192/70
f 89/178/71 96/192/71 93/186/71 90/180/71
f 91/182/72 92/184/72 94/188/72 95/190/72
f 94/188/68 93/186/68 96/191/68 95/189/68
o Cylinder.013
v -11.707006 0.639091 4.280390
v 8.291264 0.902107 4.280388
v -11.711874 1.009195 3.976930
v 8.286396 1.272210 3.976928
v 8.292397 0.816009 4.099873
v 8.288502 1.112092 3.857105
v -11.709768 0.849076 3.857106
v -11.705873 0.552994 4.099874
vn -0.0083 0.6340 0.7733
vn 0.0083 -0.6340 -0.7733
vn 0.9999 0.0132 -0.0000
vn -0.9999 -0.0132 -0.0000
vn 0.0119 -0.9025 0.4305
vn -0.0079 0.5991 -0.8007
vt 0.538462 0.500000
vt 0.807436 0.016974
vt 0.538462 1.000000
vt 0.307436 0.016974
vt 0.461538 0.500000
vt 0.692564 0.016974
vt 0.461538 1.000000
vt 0.192564 0.016974
vt 0.295949 0.063579
vt 0.538462 0.552051
vt 0.204051 0.063579
vt 0.461538 0.552051
vt 0.461538 0.947949
vt 0.704051 0.063579
vt 0.538462 0.947949
vt 0.795949 0.063579
s 0
f 97/193/73 98/195/73 100/199/73 99/197/73
f 102/203/75 100/200/75 98/196/75 101/201/75
f 97/194/76 99/198/76 103/206/76 104/208/76
f 97/194/77 104/208/77 101/202/77 98/196/77
f 99/198/78 100/200/78 102/204/78 103/206/78
f 102/204/74 101/202/74 104/207/74 103/205/74
o Cylinder.014
v -11.702697 0.311433 4.372513
v 8.295573 0.574448 4.372504
v -11.708621 0.761874 4.210785
v 8.289649 1.024889 4.210776
v 8.295844 0.553883 4.173564
v 8.291104 0.914235 4.044182
v -11.707166 0.651220 4.044191
v -11.702426 0.290867 4.173573
vn -0.0044 0.3379 0.9412
vn 0.0044 -0.3379 -0.9412
vn 0.9999 0.0132 -0.0000
vn -0.9999 -0.0132 -0.0000
vn 0.0131 -0.9946 0.1028
vn -0.0110 0.8329 -0.5533
vt 0.538462 0.500000
vt 0.807436 0.016974
vt 0.538462 1.000000
vt 0.307436 0.016974
vt 0.461538 0.500000
vt 0.692564 0.016974
vt 0.461538 1.000000
vt 0.192564 0.016974
vt 0.295949 0.063579
vt 0.538462 0.552051
vt 0.204051 0.063579
vt 0.461538 0.552051
vt 0.461538 0.947949
vt 0.704051 0.063579
vt 0.538462 0.947949
vt 0.795949 0.063579
s 0
f 105/209/79 106/211/79 108/215/79 107/213/79
f 110/219/81 108/216/81 106/212/81 109/217/81
f 105/210/82 107/214/82 111/222/82 112/224/82
f 105/210/83 112/224/83 109/218/83 106/212/83
f 107/214/84 108/216/84 110/220/84 111/222/84
f 110/220/80 109/218/80 112/223/80 111/221/80
